<svg id="Layer_1" data-name="Layer 1" xmlns="http://www.w3.org/2000/svg" viewBox="0 0 311.14 369.15"><defs><style>.cls-1,.cls-3,.cls-4,.cls-5{fill:#c22033;}.cls-1,.cls-4,.cls-5,.cls-6{stroke:#c22033;stroke-miterlimit:10;}.cls-2,.cls-6{fill:#fff;}.cls-4{stroke-width:0.53px;}.cls-5{stroke-width:0.58px;}.cls-6{stroke-width:0.86px;}</style></defs><circle class="cls-1" cx="124.73" cy="76.93" r="76.43"/><path class="cls-2" d="M244.34,115.23a16,16,0,1,1,16-16h0A16.28,16.28,0,0,1,244.34,115.23Z" transform="translate(-119.61 -76.6)"/><path class="cls-3" d="M244.34,83.82a15.46,15.46,0,1,1-15.45,15.45h0a15.31,15.31,0,0,1,15.45-15.45m0-.84a16.3,16.3,0,1,0,16.3,16.29h0A16.31,16.31,0,0,0,244.34,83Z" transform="translate(-119.61 -76.6)"/><path class="cls-2" d="M244.34,223.74a16,16,0,1,1,16-16h0A16.06,16.06,0,0,1,244.34,223.74Z" transform="translate(-119.61 -76.6)"/><path class="cls-3" d="M244.34,192.33a15.46,15.46,0,1,1-15.45,15.45h0a15.31,15.31,0,0,1,15.45-15.45m0-.84a16.3,16.3,0,1,0,16.3,16.29h0A16.42,16.42,0,0,0,244.34,191.49Z" transform="translate(-119.61 -76.6)"/><path class="cls-2" d="M200.17,191.15a16,16,0,1,1,16-16A15.94,15.94,0,0,1,200.17,191.15Z" transform="translate(-119.61 -76.6)"/><path class="cls-3" d="M200.17,159.74a15.46,15.46,0,1,1-15.46,15.46h0a15.53,15.53,0,0,1,15.46-15.46m0-.67a16.3,16.3,0,1,0,16.29,16.29h0A16.2,16.2,0,0,0,200.17,159.07Z" transform="translate(-119.61 -76.6)"/><path class="cls-2" d="M200.17,143.45a16,16,0,1,1,16-16A16,16,0,0,1,200.17,143.45Z" transform="translate(-119.61 -76.6)"/><path class="cls-3" d="M200.17,112a15.45,15.45,0,1,1-15.46,15.45h0A15.52,15.52,0,0,1,200.17,112m0-.67a16.29,16.29,0,1,0,16.29,16.29h0A16.2,16.2,0,0,0,200.17,111.37Z" transform="translate(-119.61 -76.6)"/><path class="cls-2" d="M288.35,143.45a16,16,0,1,1,16-16A16,16,0,0,1,288.35,143.45Z" transform="translate(-119.61 -76.6)"/><path class="cls-3" d="M288.35,112a15.45,15.45,0,1,1-15.45,15.45h0A15.51,15.51,0,0,1,288.35,112m0-.67a16.29,16.29,0,1,0,16.29,16.29h0A16.2,16.2,0,0,0,288.35,111.37Z" transform="translate(-119.61 -76.6)"/><path class="cls-2" d="M288.35,191.15a16,16,0,1,1,16-16A16,16,0,0,1,288.35,191.15Z" transform="translate(-119.61 -76.6)"/><path class="cls-3" d="M288.35,159.74A15.46,15.46,0,1,1,272.9,175.2h0a15.52,15.52,0,0,1,15.45-15.46m0-.67a16.3,16.3,0,1,0,16.29,16.29h0A16.2,16.2,0,0,0,288.35,159.07Z" transform="translate(-119.61 -76.6)"/><path class="cls-2" d="M244.34,161.93a8.4,8.4,0,1,1,8.4-8.4A8.42,8.42,0,0,1,244.34,161.93Z" transform="translate(-119.61 -76.6)"/><path class="cls-3" d="M244.34,145.46a8.06,8.06,0,0,1,8.06,8.07,8,8,0,0,1-8.06,8.06,8.06,8.06,0,0,1-8.06-8.06h0a8.07,8.07,0,0,1,8.06-8.07h0m0-.67a8.82,8.82,0,1,0,8.74,8.9v-.16a8.79,8.79,0,0,0-8.74-8.74Z" transform="translate(-119.61 -76.6)"/><path class="cls-4" d="M167.07,228.61H327.32a47.24,47.24,0,0,1,47.2,47.2v105a47.24,47.24,0,0,1-47.2,47.2H167.07a47.24,47.24,0,0,1-47.2-47.2v-105A47.14,47.14,0,0,1,167.07,228.61Z" transform="translate(-119.61 -76.6)"/><polygon class="cls-5" points="254.91 225.58 310.85 194.68 310.85 302.85 254.91 268.25 254.91 225.58"/><rect class="cls-5" x="72.49" y="351.23" width="104.48" height="17.64"/><polygon class="cls-6" points="81.23 204.42 81.23 293.11 185.71 254.98 81.23 204.42"/></svg>